<?xml version="1.0" encoding="utf-8"?> <!-- Generator: IcoMoon.io --> <!DOCTYPE svg PUBLIC "-//W3C//DTD SVG 1.1//EN" "http://www.w3.org/Graphics/SVG/1.1/DTD/svg11.dtd"> <svg width="64" height="64" viewBox="0 0 64 64" xmlns="http://www.w3.org/2000/svg" xmlns:xlink="http://www.w3.org/1999/xlink" fill="#000000"><g><path d="M 32,0C 14.327,0,0,14.327,0,32s 14.327,32, 32,32s 32-14.327, 32-32S 49.673,0, 32,0z M 32,58 c-14.359,0-26-11.641-26-26S 17.641,6, 32,6s 26,11.641, 26,26S 46.359,58, 32,58zM 28,16L 36,16L 36,24L 28,24zM 40,48L 24,48L 24,44L 28,44L 28,32L 24,32L 24,28L 36,28L 36,44L 40,44 z"></path></g></svg>