<?xml version="1.0" encoding="utf-8"?> <!-- Generator: IcoMoon.io --> <!DOCTYPE svg PUBLIC "-//W3C//DTD SVG 1.1//EN" "http://www.w3.org/Graphics/SVG/1.1/DTD/svg11.dtd"> <svg width="66.43062591552734" height="64" viewBox="0 0 66.43062591552734 64" xmlns="http://www.w3.org/2000/svg" xmlns:xlink="http://www.w3.org/1999/xlink" fill="#ffffff"><g><path d="M 32,9.92 L 10.448,56 L 53.552,56 L 32,9.92 Z M 32,0 L 32,0 C 33.379,0 34.759,0.93 35.805,2.791 L 63.122,57.235 C 65.215,60.956 63.435,64 59.166,64 L 4.834,64 C 0.565,64 -1.215,60.956 0.878,57.235 L 28.195,2.791 C 29.241,0.93 30.621,0 32,0 ZM 28,48A4,4 2520 1 0 36,48A4,4 2520 1 0 28,48zM 32,24 C 34.209,24 36,25.791 36,28 L 34.75,40 L 29.25,40 L 28,28 C 28,25.791 29.791,24 32,24 Z"></path></g></svg>