<?xml version="1.0" encoding="utf-8"?> <!-- Generator: IcoMoon.io --> <!DOCTYPE svg PUBLIC "-//W3C//DTD SVG 1.1//EN" "http://www.w3.org/Graphics/SVG/1.1/DTD/svg11.dtd"> <svg width="64" height="64" viewBox="0 0 64 64" xmlns="http://www.w3.org/2000/svg" xmlns:xlink="http://www.w3.org/1999/xlink" fill="#ffffff"><g><path d="M 22.733,45.128l 2.581-3.614l-2.828-2.829l-3.614,2.581c-0.67-0.375-1.388-0.673-2.142-0.887L 16,36L 12,36 l-0.73,4.38c-0.754,0.214-1.472,0.512-2.142,0.887L 5.515,38.686L 2.686,41.515l 2.581,3.614 c-0.375,0.67-0.673,1.388-0.887,2.142L0,48l0,4 l 4.38,0.73c 0.214,0.754, 0.512,1.472, 0.887,2.142L 2.686,58.485l 2.828,2.829 l 3.614-2.581c 0.67,0.375, 1.388,0.673, 2.142,0.887L 12,64l 4,0 l 0.73-4.38c 0.754-0.214, 1.472-0.512, 2.142-0.887l 3.614,2.581 l 2.828-2.829l-2.581-3.614c 0.375-0.67, 0.673-1.388, 0.887-2.142L 28,52l0-4 l-4.38-0.73 C 23.406,46.516, 23.107,45.798, 22.733,45.128z M 14,54c-2.209,0-4-1.791-4-4s 1.791-4, 4-4s 4,1.791, 4,4 S 16.209,54, 14,54zM 64,24l0-4 l-4.211-0.766c-0.078-0.503-0.177-0.999-0.295-1.487l 3.597-2.319L 61.56,11.733l-4.184,0.904 c-0.263-0.432-0.545-0.851-0.843-1.258l 2.438-3.521l-2.829-2.828l-3.521,2.438c-0.407-0.298-0.826-0.58-1.258-0.843 l 0.904-4.184L 48.571,0.909l-2.319,3.597c-0.488-0.118-0.984-0.218-1.487-0.295L 44,0l-4,0 l-0.766,4.211 c-0.503,0.078-0.999,0.177-1.487,0.295L 35.429,0.909L 31.733,2.44l 0.904,4.184c-0.432,0.264-0.851,0.545-1.258,0.843 l-3.521-2.438l-2.828,2.828l 2.438,3.521c-0.298,0.407-0.58,0.826-0.843,1.258l-4.184-0.904l-1.531,3.696l 3.597,2.319 c-0.118,0.488-0.218,0.984-0.295,1.487L 20,20l0,4 l 4.211,0.766c 0.078,0.503, 0.177,0.999, 0.295,1.487l-3.597,2.319 l 1.531,3.696l 4.184-0.904c 0.264,0.432, 0.545,0.851, 0.843,1.258l-2.438,3.521l 2.828,2.829l 3.521-2.438 c 0.407,0.298, 0.826,0.58, 1.258,0.843l-0.904,4.184l 3.696,1.531l 2.319-3.597c 0.488,0.118, 0.984,0.218, 1.487,0.295L 40,44l 4,0 l 0.766-4.211c 0.503-0.078, 0.999-0.177, 1.487-0.295l 2.319,3.597l 3.696-1.531l-0.904-4.184 c 0.432-0.264, 0.851-0.545, 1.258-0.843l 3.521,2.438l 2.829-2.829l-2.438-3.521c 0.298-0.407, 0.58-0.826, 0.843-1.258 l 4.184,0.904l 1.531-3.696l-3.597-2.319c 0.118-0.488, 0.218-0.984, 0.295-1.487L 64,24z M 42,30.7 c-4.805,0-8.7-3.895-8.7-8.7c0-4.805, 3.895-8.7, 8.7-8.7s 8.7,3.895, 8.7,8.7C 50.7,26.805, 46.805,30.7, 42,30.7z"></path></g></svg>