<?xml version="1.0" encoding="utf-8"?> <!-- Generator: IcoMoon.io --> <!DOCTYPE svg PUBLIC "-//W3C//DTD SVG 1.1//EN" "http://www.w3.org/Graphics/SVG/1.1/DTD/svg11.dtd"> <svg width="64" height="64" viewBox="0 0 64 64" xmlns="http://www.w3.org/2000/svg" xmlns:xlink="http://www.w3.org/1999/xlink" fill="#ffffff"><g><path d="M 32,6 C 25.055,6 18.526,8.704 13.615,13.615 C 8.704,18.526 6,25.055 6,32 C 6,38.945 8.704,45.474 13.615,50.385 C 18.526,55.295 25.055,58 32,58 C 38.945,58 45.474,55.295 50.385,50.385 C 55.295,45.474 58,38.945 58,32 C 58,25.055 55.295,18.526 50.385,13.615 C 45.474,8.704 38.945,6 32,6 Z M 32,0 L 32,0 C 49.673,0 64,14.327 64,32 C 64,49.673 49.673,64 32,64 C 14.327,64 0,49.673 0,32 C 0,14.327 14.327,0 32,0 ZM 28,44L 36,44L 36,52L 28,52zM 28,12L 36,12L 36,36L 28,36z"></path></g></svg>